<svg width="24" height="24" viewBox="0 -6 24 24" fill="none" xmlns="http://www.w3.org/2000/svg">
<g filter="url(#filter0_d_6171_259825)">
<path d="M10.1738 12.0508H8V4H13.4492C14.0352 4 14.5312 4.06055 14.9375 4.18164C15.3477 4.30273 15.6797 4.47461 15.9336 4.69727C16.1914 4.91992 16.377 5.18945 16.4902 5.50586C16.6074 5.81836 16.666 6.16797 16.666 6.55469C16.666 6.89453 16.6172 7.19141 16.5195 7.44531C16.4258 7.69922 16.2969 7.91797 16.1328 8.10156C15.9727 8.28125 15.7852 8.43359 15.5703 8.55859C15.3555 8.68359 15.1289 8.78711 14.8906 8.86914L17.5273 12.0508H14.9844L12.5469 9.08594H10.1738V12.0508ZM14.4688 6.54297C14.4688 6.38672 14.4473 6.25391 14.4043 6.14453C14.3652 6.03516 14.2949 5.94727 14.1934 5.88086C14.0918 5.81055 13.9551 5.75977 13.7832 5.72852C13.6152 5.69727 13.4043 5.68164 13.1504 5.68164H10.1738V7.4043H13.1504C13.4043 7.4043 13.6152 7.38867 13.7832 7.35742C13.9551 7.32617 14.0918 7.27734 14.1934 7.21094C14.2949 7.14062 14.3652 7.05078 14.4043 6.94141C14.4473 6.83203 14.4688 6.69922 14.4688 6.54297Z" fill="#121212"/>
<path d="M10.1738 12.0508H8V4H13.4492C14.0352 4 14.5312 4.06055 14.9375 4.18164C15.3477 4.30273 15.6797 4.47461 15.9336 4.69727C16.1914 4.91992 16.377 5.18945 16.4902 5.50586C16.6074 5.81836 16.666 6.16797 16.666 6.55469C16.666 6.89453 16.6172 7.19141 16.5195 7.44531C16.4258 7.69922 16.2969 7.91797 16.1328 8.10156C15.9727 8.28125 15.7852 8.43359 15.5703 8.55859C15.3555 8.68359 15.1289 8.78711 14.8906 8.86914L17.5273 12.0508H14.9844L12.5469 9.08594H10.1738V12.0508ZM14.4688 6.54297C14.4688 6.38672 14.4473 6.25391 14.4043 6.14453C14.3652 6.03516 14.2949 5.94727 14.1934 5.88086C14.0918 5.81055 13.9551 5.75977 13.7832 5.72852C13.6152 5.69727 13.4043 5.68164 13.1504 5.68164H10.1738V7.4043H13.1504C13.4043 7.4043 13.6152 7.38867 13.7832 7.35742C13.9551 7.32617 14.0918 7.27734 14.1934 7.21094C14.2949 7.14062 14.3652 7.05078 14.4043 6.94141C14.4473 6.83203 14.4688 6.69922 14.4688 6.54297Z" fill="#FF6638" fill-opacity="0.87"/>
<rect x="4.5" y="0.5" width="15" height="15" stroke="#121212" shape-rendering="crispEdges"/>
<rect x="4.5" y="0.5" width="15" height="15" stroke="#FF6638" stroke-opacity="0.87" shape-rendering="crispEdges"/>
</g>
<defs>
<filter id="filter0_d_6171_259825" x="0" y="0" width="24" height="24" filterUnits="userSpaceOnUse" color-interpolation-filters="sRGB">
<feFlood flood-opacity="0" result="BackgroundImageFix"/>
<feColorMatrix in="SourceAlpha" type="matrix" values="0 0 0 0 0 0 0 0 0 0 0 0 0 0 0 0 0 0 127 0" result="hardAlpha"/>
<feOffset dy="4"/>
<feGaussianBlur stdDeviation="2"/>
<feComposite in2="hardAlpha" operator="out"/>
<feColorMatrix type="matrix" values="0 0 0 0 0 0 0 0 0 0 0 0 0 0 0 0 0 0 0.25 0"/>
<feBlend mode="normal" in2="BackgroundImageFix" result="effect1_dropShadow_6171_259825"/>
<feBlend mode="normal" in="SourceGraphic" in2="effect1_dropShadow_6171_259825" result="shape"/>
</filter>
</defs>
</svg>
