<svg width="24" height="24" viewBox="0 -6 24 24" fill="none" xmlns="http://www.w3.org/2000/svg">
<g filter="url(#filter0_d_6171_259814)">
<path d="M16.4102 11.7051C16.1289 11.8223 15.8457 11.9277 15.5605 12.0215C15.2754 12.1152 14.9805 12.1953 14.6758 12.2617C14.3711 12.332 14.0488 12.3848 13.709 12.4199C13.373 12.4551 13.0117 12.4727 12.625 12.4727C11.8047 12.4727 11.0488 12.3848 10.3574 12.209C9.66992 12.0332 9.07617 11.7695 8.57617 11.418C8.08008 11.0625 7.69336 10.6211 7.41602 10.0938C7.13867 9.5625 7 8.94336 7 8.23633C7 7.5293 7.13867 6.91211 7.41602 6.38477C7.69336 5.85352 8.08008 5.41211 8.57617 5.06055C9.07617 4.70508 9.66992 4.43945 10.3574 4.26367C11.0488 4.08789 11.8047 4 12.625 4C13.0117 4 13.373 4.01758 13.709 4.05273C14.0488 4.08789 14.3711 4.14062 14.6758 4.21094C14.9805 4.27734 15.2754 4.35742 15.5605 4.45117C15.8457 4.54492 16.1289 4.65039 16.4102 4.76758V6.72461C16.1875 6.60352 15.9531 6.48438 15.707 6.36719C15.4609 6.24609 15.1895 6.13867 14.8926 6.04492C14.5957 5.94727 14.2695 5.86914 13.9141 5.81055C13.5586 5.74805 13.1582 5.7168 12.7129 5.7168C12.0293 5.7168 11.4609 5.78711 11.0078 5.92773C10.5586 6.06836 10.1992 6.25586 9.92969 6.49023C9.66016 6.72461 9.4707 6.99414 9.36133 7.29883C9.25195 7.59961 9.19727 7.91211 9.19727 8.23633C9.19727 8.45117 9.2207 8.66406 9.26758 8.875C9.31445 9.08203 9.39258 9.2793 9.50195 9.4668C9.61133 9.65039 9.75391 9.82031 9.92969 9.97656C10.1055 10.1328 10.3242 10.2676 10.5859 10.3809C10.8477 10.4941 11.1523 10.584 11.5 10.6504C11.8516 10.7129 12.2559 10.7441 12.7129 10.7441C13.1582 10.7441 13.5586 10.7168 13.9141 10.6621C14.2695 10.6035 14.5957 10.5273 14.8926 10.4336C15.1895 10.3398 15.4609 10.2344 15.707 10.1172C15.9531 9.99609 16.1875 9.87305 16.4102 9.74805V11.7051Z" fill="#121212"/>
<path d="M16.4102 11.7051C16.1289 11.8223 15.8457 11.9277 15.5605 12.0215C15.2754 12.1152 14.9805 12.1953 14.6758 12.2617C14.3711 12.332 14.0488 12.3848 13.709 12.4199C13.373 12.4551 13.0117 12.4727 12.625 12.4727C11.8047 12.4727 11.0488 12.3848 10.3574 12.209C9.66992 12.0332 9.07617 11.7695 8.57617 11.418C8.08008 11.0625 7.69336 10.6211 7.41602 10.0938C7.13867 9.5625 7 8.94336 7 8.23633C7 7.5293 7.13867 6.91211 7.41602 6.38477C7.69336 5.85352 8.08008 5.41211 8.57617 5.06055C9.07617 4.70508 9.66992 4.43945 10.3574 4.26367C11.0488 4.08789 11.8047 4 12.625 4C13.0117 4 13.373 4.01758 13.709 4.05273C14.0488 4.08789 14.3711 4.14062 14.6758 4.21094C14.9805 4.27734 15.2754 4.35742 15.5605 4.45117C15.8457 4.54492 16.1289 4.65039 16.4102 4.76758V6.72461C16.1875 6.60352 15.9531 6.48438 15.707 6.36719C15.4609 6.24609 15.1895 6.13867 14.8926 6.04492C14.5957 5.94727 14.2695 5.86914 13.9141 5.81055C13.5586 5.74805 13.1582 5.7168 12.7129 5.7168C12.0293 5.7168 11.4609 5.78711 11.0078 5.92773C10.5586 6.06836 10.1992 6.25586 9.92969 6.49023C9.66016 6.72461 9.4707 6.99414 9.36133 7.29883C9.25195 7.59961 9.19727 7.91211 9.19727 8.23633C9.19727 8.45117 9.2207 8.66406 9.26758 8.875C9.31445 9.08203 9.39258 9.2793 9.50195 9.4668C9.61133 9.65039 9.75391 9.82031 9.92969 9.97656C10.1055 10.1328 10.3242 10.2676 10.5859 10.3809C10.8477 10.4941 11.1523 10.584 11.5 10.6504C11.8516 10.7129 12.2559 10.7441 12.7129 10.7441C13.1582 10.7441 13.5586 10.7168 13.9141 10.6621C14.2695 10.6035 14.5957 10.5273 14.8926 10.4336C15.1895 10.3398 15.4609 10.2344 15.707 10.1172C15.9531 9.99609 16.1875 9.87305 16.4102 9.74805V11.7051Z" fill="#C377FF" fill-opacity="0.87"/>
<rect x="4.5" y="0.5" width="15" height="15" stroke="#121212" shape-rendering="crispEdges"/>
<rect x="4.5" y="0.5" width="15" height="15" stroke="#C377FF" stroke-opacity="0.87" shape-rendering="crispEdges"/>
</g>
<defs>
<filter id="filter0_d_6171_259814" x="0" y="0" width="24" height="24" filterUnits="userSpaceOnUse" color-interpolation-filters="sRGB">
<feFlood flood-opacity="0" result="BackgroundImageFix"/>
<feColorMatrix in="SourceAlpha" type="matrix" values="0 0 0 0 0 0 0 0 0 0 0 0 0 0 0 0 0 0 127 0" result="hardAlpha"/>
<feOffset dy="4"/>
<feGaussianBlur stdDeviation="2"/>
<feComposite in2="hardAlpha" operator="out"/>
<feColorMatrix type="matrix" values="0 0 0 0 0 0 0 0 0 0 0 0 0 0 0 0 0 0 0.25 0"/>
<feBlend mode="normal" in2="BackgroundImageFix" result="effect1_dropShadow_6171_259814"/>
<feBlend mode="normal" in="SourceGraphic" in2="effect1_dropShadow_6171_259814" result="shape"/>
</filter>
</defs>
</svg>
