<svg width="16" height="16" viewBox="0 0 16 16" fill="none" xmlns="http://www.w3.org/2000/svg">
<path fill-rule="evenodd" clip-rule="evenodd" d="M8 15C11.866 15 15 11.866 15 8C15 4.13401 11.866 1 8 1C4.13401 1 1 4.13401 1 8C1 11.866 4.13401 15 8 15ZM3.9375 7.5625C3.9375 5.3191 5.7566 3.5 8 3.5C10.2434 3.5 12.0625 5.3191 12.0625 7.5625V10.7222C12.0625 11.2188 11.6563 11.625 11.1597 11.625H10.2055C9.70686 11.625 9.30267 11.2208 9.30267 10.7222V9.28598C9.30267 8.7874 9.70686 8.38321 10.2055 8.38321H11.1597V7.5625C11.1597 5.81562 9.74688 4.40278 8 4.40278C6.25313 4.40278 4.84028 5.81562 4.84028 7.5625V8.38321H5.79455C6.29314 8.38321 6.69733 8.78739 6.69733 9.28598V10.7222C6.69733 11.2208 6.29314 11.625 5.79455 11.625H4.84028C4.34375 11.625 3.9375 11.2188 3.9375 10.7222V7.5625Z" fill="url(#paint0_linear_7631_28246)"/>
<defs>
<linearGradient id="paint0_linear_7631_28246" x1="1" y1="7.95541" x2="15" y2="7.95541" gradientUnits="userSpaceOnUse">
<stop stop-color="#AA93F8"/>
<stop offset="1" stop-color="#684AE9"/>
</linearGradient>
</defs>
</svg>
