<svg width="126" height="126" viewBox="0 0 126 126" fill="none" xmlns="http://www.w3.org/2000/svg">
<g clip-path="url(#clip0_6377_156128)">
<path d="M16.7994 109.741L7.63428 107.99L8.10454 105.519L17.2696 107.27L16.7994 109.741Z" fill="#121212"/>
<path d="M17.86 104.518L8.78491 102.347L9.37524 99.8955L18.4503 102.067L17.87 104.518H17.86Z" fill="#121212"/>
<path d="M19.1505 99.3453L10.2056 96.6838L10.926 94.2725L19.8709 96.9339L19.1505 99.3453Z" fill="#121212"/>
<path d="M20.7016 94.2519L11.8567 91.2602L12.6671 88.8789L21.5121 91.8606L20.7016 94.2519V94.2519Z" fill="#121212"/>
<path d="M93.6721 20.7518L90.8005 11.8769L93.2019 11.1064L96.0735 19.9814L93.6721 20.7518Z" fill="#121212"/>
<path d="M98.7648 19.181L96.3135 10.176L98.7448 9.51562L101.196 18.5206L98.7648 19.181Z" fill="#121212"/>
<path d="M103.918 17.8399L101.877 8.73488L104.338 8.18457L106.379 17.2896L103.918 17.8399Z" fill="#121212"/>
<path d="M109.131 16.7389L107.52 7.54376L110.001 7.10352L111.612 16.2986L109.131 16.7289V16.7389Z" fill="#121212"/>
</g>
<defs>
<clipPath id="clip0_6377_156128">
<rect width="126" height="126" fill="white"/>
</clipPath>
</defs>
</svg>
