<svg width="16" height="16" viewBox="0 0 16 16" fill="none" xmlns="http://www.w3.org/2000/svg">
<mask id="mask0_7508_45174" style="mask-type:alpha" maskUnits="userSpaceOnUse" x="1" y="1" width="14" height="14">
<path fill-rule="evenodd" clip-rule="evenodd" d="M8 15C11.866 15 15 11.866 15 8C15 4.13401 11.866 1 8 1C4.13401 1 1 4.13401 1 8C1 11.866 4.13401 15 8 15ZM6.83112 13.25H7.41445C7.41445 13.25 8.55779 11.2375 10.8561 7.21833L10.897 7.13083C10.9495 7.02583 10.9086 6.83333 10.6228 6.83333H8.58112L9.16445 2.75H8.58112C7.96606 3.83232 7.41334 4.80358 6.92339 5.66456C6.21447 6.91032 5.63692 7.92521 5.19195 8.71167C5.18029 8.735 5.26195 8.58333 5.15112 8.78167C5.04029 8.98 5.03445 9.16667 5.37279 9.16667H7.41445L6.83112 13.25Z" fill="white" fill-opacity="0.87"/>
</mask>
<g mask="url(#mask0_7508_45174)">
<rect x="1" y="1" width="14" height="14" fill="white" fill-opacity="0.87"/>
</g>
</svg>
