<svg width="21" height="22" viewBox="0 0 21 22" fill="none" xmlns="http://www.w3.org/2000/svg">
<path d="M2.73389 8.5H16.7339V10.5H18.7339V4.5C18.7339 3.4 17.8339 2.5 16.7339 2.5H15.7339V0.5H13.7339V2.5H5.73389V0.5H3.73389V2.5H2.73389C1.62389 2.5 0.743887 3.4 0.743887 4.5L0.733887 18.5C0.733887 19.6 1.62389 20.5 2.73389 20.5H9.73389V18.5H2.73389V8.5ZM2.73389 4.5H16.7339V6.5H2.73389V4.5ZM20.5739 14.78L19.8639 15.49L17.7439 13.37L18.4539 12.66C18.8439 12.27 19.4739 12.27 19.8639 12.66L20.5739 13.37C20.9639 13.76 20.9639 14.39 20.5739 14.78ZM17.0339 14.08L19.1539 16.2L13.8539 21.5H11.7339V19.38L17.0339 14.08Z" fill="white" fill-opacity="0.87"/>
</svg>
