<svg width="196" height="32" viewBox="0 0 196 32" fill="none" xmlns="http://www.w3.org/2000/svg">
    <path
        d="M75.886 0.439453L68.0052 23.5549H59.6049L56.3786 19.953C58.3413 19.7577 60.3224 19.2191 61.828 17.9307C63.9257 16.1366 64.8714 12.9117 64.9742 10.2432C65.0872 7.30123 63.766 4.34627 61.5806 2.38978C59.7283 0.7307 57.4888 0.439453 55.0745 0.439453H0.0151367V8.43127H16.2092V31.5542H25.3468V8.43127H36.2305V31.5542H45.3674V21.3544L54.503 31.5542H74.9362L76.8564 25.9075H88.2465L90.166 31.5549H99.8224L89.2559 0.439453H75.886ZM54.503 10.3076C54.4749 11.539 53.9212 13.0672 52.5492 13.0672H45.3667V7.41978H52.5294C53.9205 7.41978 54.5324 8.99115 54.5023 10.3069L54.503 10.3076ZM79.2233 18.9422L82.5497 9.15082L85.8782 18.9422H79.2226H79.2233Z"
        fill="white"
    />
    <path
        d="M115.967 0.439453C113.524 0.439453 111.222 0.751944 109.061 1.37693C106.899 2.00191 104.985 2.94966 103.318 4.22087C101.652 5.49207 100.348 7.08674 99.4073 9.00417C98.4664 10.9223 97.9956 13.1022 97.9956 15.5439C97.9956 19.0203 98.7823 21.9581 100.355 24.3567C101.928 26.7558 104.079 28.5554 106.808 29.7547C109.537 30.9539 112.59 31.5535 115.966 31.5535H129.05V22.4166H119.17C116.902 22.4166 114.457 22.5448 112.276 21.8149C109.491 20.8829 108.574 18.6153 108.466 15.8591C108.584 13.6333 109.059 11.7501 111.2 10.6941C113.647 9.48661 116.513 9.57707 119.17 9.57707H129.05V0.439453H115.966H115.967Z"
        fill="white"
    />
    <path
        d="M179.26 8.43881H195.983V0.439453H173.278C170.208 0.439453 166.983 2.44323 166.144 6.1287C165.432 9.26389 166.815 14.8599 171.991 20.1175C172.62 20.7562 173.095 21.4305 173.003 22.4166C172.924 23.2664 171.564 23.5542 170.787 23.5542H156.857L148.717 16.4224L163.224 0.439453H150.875L141.67 10.5975V0.439453H132.54V31.5542H141.67V22.4173L152.148 31.5542H178.449C182.09 31.4706 185.571 28.3827 185.571 24.162C185.571 20.3114 182.864 16.7698 179.085 12.4806C177.444 10.6173 176.948 8.43881 179.259 8.43812L179.26 8.43881Z"
        fill="white"
    />
</svg>