<svg width="22" height="22" viewBox="0 0 22 22" fill="none" xmlns="http://www.w3.org/2000/svg">
<path d="M6.89996 3.6L9.39996 5L7.99996 2.5L9.39996 0L6.89996 1.4L4.39996 0L5.79996 2.5L4.39996 5L6.89996 3.6ZM18.9 13.4L16.4 12L17.8 14.5L16.4 17L18.9 15.6L21.4 17L20 14.5L21.4 12L18.9 13.4ZM21.4 0L18.9 1.4L16.4 0L17.8 2.5L16.4 5L18.9 3.6L21.4 5L20 2.5L21.4 0ZM13.77 5.29C13.38 4.9 12.75 4.9 12.36 5.29L0.689961 16.96C0.299961 17.35 0.299961 17.98 0.689961 18.37L3.02996 20.71C3.41996 21.1 4.04996 21.1 4.43996 20.71L16.1 9.05C16.49 8.66 16.49 8.03 16.1 7.64L13.77 5.29ZM12.74 10.78L10.62 8.66L13.06 6.22L15.18 8.34L12.74 10.78Z" fill="white" fill-opacity="0.87"/>
</svg>
