<svg width="21" height="20" viewBox="0 0 21 20" fill="none" xmlns="http://www.w3.org/2000/svg">
<path d="M6.6001 16C5.5001 16 4.6101 16.9 4.6101 18C4.6101 19.1 5.5001 20 6.6001 20C7.7001 20 8.6001 19.1 8.6001 18C8.6001 16.9 7.7001 16 6.6001 16ZM0.600098 0V2H2.6001L6.2001 9.59L4.8501 12.04C4.6901 12.32 4.6001 12.65 4.6001 13C4.6001 14.1 5.5001 15 6.6001 15H18.6001V13H7.0201C6.8801 13 6.7701 12.89 6.7701 12.75L6.8001 12.63L7.7001 11H15.1501C15.9001 11 16.5601 10.59 16.9001 9.97L20.4801 3.48C20.5601 3.34 20.6001 3.17 20.6001 3C20.6001 2.45 20.1501 2 19.6001 2H4.8101L3.8701 0H0.600098ZM16.6001 16C15.5001 16 14.6101 16.9 14.6101 18C14.6101 19.1 15.5001 20 16.6001 20C17.7001 20 18.6001 19.1 18.6001 18C18.6001 16.9 17.7001 16 16.6001 16Z" fill="white" fill-opacity="0.87"/>
</svg>
