<svg width="20" height="20" viewBox="0 0 20 20" fill="none" xmlns="http://www.w3.org/2000/svg">
<path fill-rule="evenodd" clip-rule="evenodd" d="M9.3717 0.371678C9.71884 0.0245449 10.2816 0.0245449 10.6288 0.371678L16.2573 6.00022L15.0002 7.2573L10.8891 3.14616V14.8891H9.11133V3.14621L5.00024 7.2573L3.74316 6.00022L9.3717 0.371678ZM1.88911 12.1113V17.0002C1.88911 17.2949 2.00617 17.5775 2.21454 17.7859C2.42292 17.9943 2.70553 18.1113 3.00022 18.1113H17.0002C17.2949 18.1113 17.5775 17.9943 17.7859 17.7859C17.9943 17.5775 18.1113 17.2949 18.1113 17.0002V12.1113H19.8891V17.0002C19.8891 17.7664 19.5847 18.5012 19.043 19.043C18.5012 19.5847 17.7664 19.8891 17.0002 19.8891H3.00022C2.23404 19.8891 1.49924 19.5847 0.957464 19.043C0.415692 18.5012 0.111328 17.7664 0.111328 17.0002V12.1113H1.88911Z" fill="white" fill-opacity="0.87"/>
</svg>
